<?xml version="1.0" encoding="UTF-8" standalone="no"?>
<svg
   xmlns:dc="http://purl.org/dc/elements/1.1/"
   xmlns:cc="http://creativecommons.org/ns#"
   xmlns:rdf="http://www.w3.org/1999/02/22-rdf-syntax-ns#"
   xmlns:svg="http://www.w3.org/2000/svg"
   xmlns="http://www.w3.org/2000/svg"
   viewBox="0 0 708.6614 708.66145"
   height="200mm"
   width="200mm"
   version="1.1"
   id="svg2">
  <metadata
     id="metadata8">
    <rdf:RDF>
      <cc:Work
         rdf:about="">
        <dc:format>image/svg+xml</dc:format>
        <dc:type
           rdf:resource="http://purl.org/dc/dcmitype/StillImage" />
        <dc:title></dc:title>
      </cc:Work>
    </rdf:RDF>
  </metadata>
  <defs
     id="defs6" />
  <path
     id="path4160"
     d="m 356.48533,632.67042 c -2.41283,-1.64711 -6.24351,-6.28898 -8.51267,-10.31525 -4.02709,-7.1455 -4.13631,-7.79775 -4.56924,-27.2855 -0.24394,-10.98075 0.84758,-42.12615 2.42557,-69.212 3.401,-58.37733 4.9888,-161.86932 2.76415,-180.16593 -2.67842,-22.02866 -7.90719,-30.79757 -18.36408,-30.79757 -7.20471,0 -13.77723,3.25536 -28.31446,14.0241 -18.80478,13.93002 -20.49611,16.7816 -22.87483,38.56669 -1.86558,17.08573 0.32887,67.29106 4.1856,95.75917 5.08649,37.54537 4.65716,61.1716 -1.36602,75.17283 -6.86559,15.95951 -18.95086,16.16238 -26.66459,0.44763 -2.84229,-5.79046 -3.12119,-8.11663 -3.15528,-26.31692 -0.0266,-14.21068 0.80774,-25.33571 2.89477,-38.599 3.91158,-24.85849 6.0954,-61.04367 5.5024,-91.1735 -0.55784,-28.34431 -1.72619,-32.79498 -8.49257,-32.35173 -2.16423,0.14178 -48.25728,22.41953 -102.42899,49.50612 -54.171699,27.08657 -100.590321,50.11643 -103.152494,51.17744 -2.562175,1.06103 -8.102463,3.48241 -12.31175,5.38087 -4.209288,1.89846 -7.65325,3.22589 -7.65325,2.94985 0,-0.64389 15.648034,-12.14731 93.169994,-68.49253 C 304.83283,256.28901 361.03532,221.87399 497.5716,159.47841 518.24918,150.029 673.8255,77.085432 680.5841,73.671122 c 5.01316,-2.532567 0.21846,1.189043 -33.9405,26.344208 -84.49522,62.22354 -152.75201,114.98684 -170.23019,131.58991 -9.58969,9.10956 -14.81647,18.83193 -17.52478,32.59802 -1.81996,9.2507 -0.92824,89.2213 1.41121,126.55791 2.62555,41.90253 3.08802,65.71454 1.45792,75.06521 -3.88621,22.29216 -13.38502,28.62637 -20.65258,13.77201 -5.31044,-10.85413 -6.35245,-23.924 -4.8202,-60.45917 3.92677,-93.62946 4.16437,-103.82106 2.80266,-120.21705 -0.75998,-9.15063 -2.04378,-18.9861 -2.8529,-21.85662 -1.67148,-5.93002 -7.79728,-12.74938 -11.45271,-12.74938 -5.83636,0 -32.63488,18.52623 -41.09421,28.40907 -10.37039,12.11545 -13.89753,34.50178 -14.84946,94.24792 -0.76754,48.1731 0.0869,67.25794 5.86048,130.89851 4.45622,49.11996 4.97646,89.19074 1.31205,101.06332 -2.4738,8.01513 -9.35298,16.73018 -13.20585,16.73018 -1.06301,0 -3.90688,-1.34763 -6.31971,-2.99475 z"
     style="fill:#ba1016;fill-opacity:1;stroke:none;stroke-opacity:1" />
</svg>
