<?xml version="1.0" encoding="iso-8859-1"?>
<!-- Generator: Adobe Illustrator 16.0.0, SVG Export Plug-In . SVG Version: 6.00 Build 0)  -->
<!DOCTYPE svg PUBLIC "-//W3C//DTD SVG 1.1//EN" "http://www.w3.org/Graphics/SVG/1.1/DTD/svg11.dtd">
<svg version="1.1" id="Capa_1" xmlns="http://www.w3.org/2000/svg" xmlns:xlink="http://www.w3.org/1999/xlink" x="0px" y="0px"
	 width="97.473px" height="97.473px" viewBox="0 0 97.473 97.473" style="enable-background:new 0 0 97.473 97.473;"
	 xml:space="preserve">
<g>
	<g>
		<g>
			<polygon points="4.486,53.472 6.51,53.076 8.038,51.465 6.778,50.396 			"/>
			<polygon points="23.52,39.795 24.152,39.672 24.521,36.839 20.851,36.897 21.608,37.406 21.954,39.18 			"/>
			<polygon points="30.842,42.669 30.564,41.235 28.968,41.335 28.082,42.605 			"/>
			<polygon points="3.831,49.69 2.934,49.518 3.563,51.022 4.269,50.528 			"/>
			<polygon points="4.227,46.825 2.547,45.225 1.967,45.833 2.23,47.239 3.072,48.041 			"/>
			<polygon points="0.023,48.845 0,49.557 0.984,49.587 0.994,49.233 0.512,48.861 			"/>
			<polygon points="34.564,39.06 34.959,41.086 37.006,41.475 37.198,38.546 35.781,38.297 			"/>
			<path d="M3.031,21.211l-1.058,1.747l1.171,1.507l-0.471,0.021c1.985,1.934,4.951,2.724,7.761,1.786
				c4.011-1.337,6.179-5.671,4.844-9.682c-1.338-4.012-5.674-6.18-9.685-4.842c-1.021,0.34-1.921,0.876-2.675,1.55L4.229,13.1
				l-2.461,2.71l-0.48-0.436c-0.847,1.566-1.153,3.42-0.754,5.257l0.654,0.748L3.031,21.211z"/>
			<path d="M50.846,51.646c-0.393-0.283-0.771-0.557-1.14-0.823l-0.067,1.588l-2.011-3.065c-8.791-6.188-10.708-6.573-11.383-6.706
				c-0.994-0.199-2.825-0.11-5.458,0.254l-1.756,1.933l-1.547-1.404c-1.603,0.283-3.396,0.635-5.388,1.055l-0.282-0.85l-1.02,2.062
				l-1.773-0.245L15.5,46.262l1.369-3.093l3.602-1.163l-7.132-1.935l6.02-2.883l-0.304-1.831c1.52,0.261,3.129,0.447,4.507,0.421
				l-0.041-1.574l1.516,0.896l1.7-0.739l-0.215,0.939c3.388-0.951,7.58-3.079,8.528-3.573c0.321-0.167,0.6-0.384,0.832-0.638
				c0.352-0.388,0.582-0.86,0.693-1.363l-1.052-1.443l0.504-1.005c-0.861-1.118-2.421-1.498-3.718-0.826
				c-2.457,1.277-6.707,3.164-8.465,3.363c-1.05,0.119-3.005-0.153-4.926-0.538c3.407-1.954,7.25-4.65,10.453-8.176
				c0.338-0.372,0.668-0.753,0.988-1.142c1.047-1.268,0.866-3.14-0.399-4.185c-0.048-0.039-0.102-0.063-0.151-0.1l-0.326,0.959
				l-1.109-1.522c-0.953-0.097-1.937,0.27-2.597,1.063c-0.585,0.708-1.207,1.382-1.854,2.021l-0.166,0.596l1.155,1.449l-2.04,0.075
				l-2.161,3.866l0.451-3.557c-1.599,1.26-5.687,6.046-10.582,6.096c0,0-0.84,0.025-1.647,0.314
				c-0.774,0.277-1.579,0.747-1.579,0.747l-0.021,0.012c-2.242,1.412-4.183,4.271-3.188,7.257l1.471,4.407l0.146,0.074l1.641-0.863
				l0.353,2.015l2.909,2.878l-3.996-0.944l2.82,8.462c0.712,2.142,2.567,3.342,4.633,3.703l2.412,4.097l0.841-2.115l1.095,3.494
				l-0.949,0.296l2.751,4.673l0.104,0.051l1.639-0.862l-0.306,2.019l1.658,0.944l-1.43,0.676l5.123,8.7
				c1.134,1.928,3.619,2.569,5.548,1.436c0.362-0.213,0.678-0.473,0.946-0.768c1.159-1.278,1.414-3.214,0.488-4.781l-3.252-5.523
				l-1.95,0.611l0.934-2.341l-7.462-12.668c2.644-0.575,5.642-1.155,8.076-1.562l-1.096-1.624l3.441,1.267
				c0.814-0.109,1.475-0.177,1.892-0.187c1.69,0.786,7.132,4.446,11.455,7.588c1.689,1.228,4.008,0.96,5.38-0.549
				c0.099-0.108,0.192-0.225,0.28-0.347C53.058,55.496,52.654,52.963,50.846,51.646z"/>
		</g>
		<path d="M96.695,33.077c-1.653-2.125-4.826-2.001-10.595-1.777c-1.172,0.046-2.362,0.092-3.524,0.114
			c2.055-1.259,3.527-3.422,3.795-6.006c0.457-4.401-2.74-8.34-7.145-8.796c-4.402-0.457-8.341,2.743-8.799,7.146
			c-0.355,3.465,1.555,6.635,4.529,8.054c-0.363,0.135-0.723,0.296-1.069,0.484L47.973,32.34v-0.411h-3.534v0.417l-1.427,0.002
			l0.004,2.829l13.198-0.022c0.888,0.561,2.12,1.088,3.76,1.37c0.041,0.112,0.089,0.223,0.142,0.333
			c0.25,0.484,2.471,4.797,4.492,7.037c1.504,1.667,3.455,2.42,4.941,2.763l-0.811,8.388c-0.064,0.624-0.027,0.664,0.096,1.217
			c-3.866,3.143-7.958,7.354-7.914,11.08c0.039,3.314,2.27,13.806,2.715,15.876c0.372,1.724,1.896,2.901,3.591,2.901
			c0.259,0,0.517-0.026,0.779-0.083c1.983-0.428,3.246-2.384,2.817-4.369c-1.006-4.674-2.42-11.977-2.543-14.189
			c0.5-1.179,3.306-4.055,6.086-6.22c0.345,0.081,0.695,0.146,1.047,0.183c0.27,0.027,0.543,0.038,0.816,0.038
			c0.693,4.541,1.818,9.022,3.646,10.928c2.098,2.188,10.027,10.896,10.109,10.984c0.726,0.796,1.722,1.201,2.721,1.201
			c0.884,0,1.77-0.316,2.475-0.958c1.5-1.368,1.609-3.694,0.243-5.195c-0.326-0.357-7.899-8.672-10.165-11.042
			c-0.689-1.104-1.744-5.237-2.275-9.797c0.379-0.237,0.489-0.909,0.534-1.341l1.273-13.993c-2.722,0.196-6.248,0.219-9.521-0.473
			c-0.169-0.036-0.328-0.082-0.486-0.139c-1.719-0.617-2.729-2.431-2.352-4.221c0.209-0.985,0.797-1.794,1.577-2.309l0.552-0.297
			c0.68-0.298,1.449-0.396,2.229-0.231c5.121,1.083,12.236-0.069,14.207-0.809c0.142-0.13,0.523,1.011,0.523,1.011
			c-1.919,0.775-9.537,2.052-14.966,0.904c-1.372-0.29-2.726,0.592-3.019,1.965c-0.283,1.353,0.584,2.726,1.966,3.017
			c3.231,0.684,6.737,0.642,9.405,0.438l0.002-0.022c1.455-0.123,2.729-0.299,3.678-0.455c7.859-1.288,8.4-3.118,8.723-4.211
			C97.662,35.252,97.438,34.028,96.695,33.077z M70.203,40.36c-0.369-0.148-0.723-0.354-0.975-0.635
			c-0.576-0.635-1.253-1.651-1.873-2.672c1.493,0.087,2.59,0.149,3.172,0.182L70.203,40.36z"/>
	</g>
	<polygon points="41.774,34.018 41.704,34.021 41.472,34.682 41.225,33.968 40.573,34.819 41.236,33.36 40.363,33.767 
		40.628,33.294 39.265,33.639 40.35,33.084 39.739,32.661 40.642,33.021 40.6,32.716 40.971,32.83 41.415,31.743 41.732,32.237 
		41.732,32.237 41.837,29.226 40.853,32.437 39.865,29.802 40.234,32.499 37.115,31.26 39.7,33.041 36.477,34.688 39.957,33.808 
		39.567,34.507 40.557,34.045 39.053,37.354 41.112,34.664 41.925,37.004 	"/>
</g>
<g>
</g>
<g>
</g>
<g>
</g>
<g>
</g>
<g>
</g>
<g>
</g>
<g>
</g>
<g>
</g>
<g>
</g>
<g>
</g>
<g>
</g>
<g>
</g>
<g>
</g>
<g>
</g>
<g>
</g>
</svg>
