<?xml version="1.0" encoding="UTF-8" standalone="no"?>
<!-- Created with Inkscape (http://www.inkscape.org/) -->

<svg
   xmlns:dc="http://purl.org/dc/elements/1.1/"
   xmlns:cc="http://creativecommons.org/ns#"
   xmlns:rdf="http://www.w3.org/1999/02/22-rdf-syntax-ns#"
   xmlns:svg="http://www.w3.org/2000/svg"
   xmlns="http://www.w3.org/2000/svg"
   xmlns:sodipodi="http://sodipodi.sourceforge.net/DTD/sodipodi-0.dtd"
   xmlns:inkscape="http://www.inkscape.org/namespaces/inkscape"
   width="200mm"
   height="200mm"
   viewBox="0 0 200 200"
   version="1.1"
   id="svg8"
   inkscape:version="0.92.2 (5c3e80d, 2017-08-06)"
   sodipodi:docname="logoOSS.svg">
  <defs
     id="defs2" />
  <sodipodi:namedview
     id="base"
     pagecolor="#ffffff"
     bordercolor="#666666"
     borderopacity="1.0"
     inkscape:pageopacity="0.0"
     inkscape:pageshadow="2"
     inkscape:zoom="0.98994949"
     inkscape:cx="369.43012"
     inkscape:cy="385.5578"
     inkscape:document-units="mm"
     inkscape:current-layer="svg8"
     showgrid="false"
     inkscape:window-width="1618"
     inkscape:window-height="1027"
     inkscape:window-x="-8"
     inkscape:window-y="-8"
     inkscape:window-maximized="1" />
  <metadata
     id="metadata5">
    <rdf:RDF>
      <cc:Work
         rdf:about="">
        <dc:format>image/svg+xml</dc:format>
        <dc:type
           rdf:resource="http://purl.org/dc/dcmitype/StillImage" />
        <dc:title></dc:title>
      </cc:Work>
    </rdf:RDF>
  </metadata>
  <g
     inkscape:label="Calque 1"
     inkscape:groupmode="layer"
     id="layer1"
     transform="translate(0,-97)"
     style="display:inline" />
  <path
     style="display:inline;fill:#000000;fill-opacity:1;fill-rule:evenodd;stroke:#000000;stroke-width:0.31965601px;stroke-linecap:butt;stroke-linejoin:miter;stroke-opacity:1"
     d="m 78.511545,4.1151462 -2.502932,0.32277 c -2.502485,0.32291 -3.874711,1.29212 -5.166317,1.93792 -1.291605,0.6458 -1.85675,2.17953 -1.85675,2.17953 l 0.807256,0.4844804 c 0,0 -0.08042,0.40306 -0.403317,1.0488694 -0.3229,0.6458 -0.72685,1.93767 -1.211196,3.39073 -0.484355,1.45305 -0.161078,2.98709 -0.161078,3.39072 0,0.40364 -0.242238,0.40321 -0.242238,0.7261 0,0.3229 0.242238,0.48461 0.242238,0.96896 0,0.48436 0.64599,2.58285 0.726719,3.3901 0.08072,0.80726 0.08035,2.01852 0.161075,3.06795 0.08073,1.04943 1.291362,3.87495 1.452811,4.52076 0.161449,0.6458 0.161951,0.96876 0.323403,1.85675 0.161451,0.88798 0.72622,1.53361 1.210572,2.50231 0.484353,0.9687 0.323153,1.85643 0.968958,2.26006 0.645797,0.40363 0.48392,-0.0804 0.726095,0.40394 0.242178,0.48435 -0.564707,1.53373 -0.968334,2.17953 -0.40363,0.64581 -4.44023,5.16632 -6.054736,6.78083 -1.614509,1.61452 -6.215501,6.61918 -6.619128,6.86137 -0.403626,0.24217 -0.807316,0.40369 -1.049494,1.0495 -0.242175,0.6458 0.565081,8.79955 0.807256,11.38275 0.242178,2.58321 2.098682,13.31918 2.502309,14.77223 0.40362,1.45306 0.726716,2.50268 0.726716,3.14849 0,0.6458 0.726779,1.77577 0.968957,2.5023 0.242175,0.72654 0,1.2112 0,1.2112 0,0 -0.8077,-0.16145 -1.695673,0 -0.59238,0.10771 -0.643746,0.60612 -0.613717,0.929 0.03097,0.16422 0.0487,0.28157 0.0487,0.28157 0,0 -0.03371,-0.12045 -0.0487,-0.28157 -0.05653,-0.29963 -0.175054,-0.81613 -0.435781,-1.49402 -0.403626,-1.04943 -1.372274,-1.61451 -1.372274,-1.61451 l -0.322776,-0.88842 h -0.48448 l -6.135274,-2.50231 c 0,0 -0.726466,0.32291 -1.372273,0.80726 -0.645798,0.48436 -0.322776,1.77621 -0.322776,1.77621 l 1.614512,0.8878 -0.403316,0.72672 c 0,0 2.421644,1.85624 1.937291,2.3406 -0.484352,0.48438 -0.887797,0.56502 -0.887797,0.56502 0,0 -0.56558,0.24217 -0.323399,0.80726 0.242175,0.56507 1.130659,1.04949 1.130659,1.04949 l -0.403943,0.48448 c 0,0 -0.565018,1.04968 -0.565018,1.77622 0,0.72652 0.48448,1.53334 0.48448,1.53334 0,0 -0.322967,0.80726 -0.242238,1.61452 0.08073,0.80725 0.645555,1.5339 0.645555,2.09899 0,0.56507 0.48479,1.13034 0.88842,1.53397 0.403626,0.40363 0.806882,0.887977 1.775587,1.614514 0.968708,0.72652 3.47133,0.88811 3.713505,1.29173 0.242178,0.40363 1.29174,2.17934 2.098993,3.87458 0.695523,1.4606 1.358509,2.2242 1.537718,2.41803 l 0.237869,-0.15796 c 0,0 0.138504,-0.0349 0.328398,-0.0961 l 0.560022,-0.3877 c 0,0 0.124087,-0.006 0.284069,-0.0244 l -0.0075,0.0593 c 0.191864,-0.0991 0.39644,-0.21518 0.611217,-0.35837 0.968699,-0.6458 1.614637,-1.29148 2.09899,-1.93729 0.484349,-0.6458 0.968583,-1.93705 1.130035,-2.58284 0.161452,-0.6458 0.968459,-0.64606 1.452811,-0.96896 0.484352,-0.3229 -0.161324,-1.29174 0.484477,-2.098987 0.645804,-0.807257 1.937292,-1.452807 1.937292,-1.452807 0,0 -0.645683,6.296474 -1.130032,8.395334 -0.484356,2.09885 0.645797,5.00475 0,6.29635 -0.645805,1.29159 -2.421648,8.88007 -2.744548,9.84878 -0.322901,0.96869 -0.48473,3.55193 -0.646182,4.84354 -0.161448,1.2916 0.161452,2.09898 0,2.90624 -0.161448,0.80725 -0.807256,0.80714 -0.807256,1.93729 0,1.13017 0.161826,1.13005 -0.161074,1.9373 -0.322904,0.80724 -0.807007,1.45318 -1.452815,2.09898 -0.645798,0.64581 -0.807256,1.7756 -0.807256,1.7756 0,0 -0.968836,1.77597 -2.09899,3.22902 -1.130156,1.45305 -0.807384,2.42177 -1.291736,3.22902 -0.453736,0.75623 -1.541832,3.32522 -1.686934,3.66856 l -0.102389,0.81662 -6.39e-4,0.001 c -0.386582,0.93235 -0.686215,1.77214 -0.712357,2.29503 -0.08073,1.61451 0.08054,2.74455 0.08054,2.74455 0,0 -0.645805,0.56497 -0.807257,1.93729 -0.161448,1.37234 -0.323025,3.0677 -0.48448,3.7135 -0.161448,0.64581 -0.161324,2.34098 -0.322776,2.98679 -0.161452,0.6458 -0.888043,1.85632 -1.049494,2.58285 -0.161449,0.72653 0.403939,3.63264 0.403939,4.84353 0,1.21088 -0.888301,3.95569 -1.211196,4.52076 -0.322903,0.56508 -1.049622,1.69512 -1.533975,2.74455 -0.484352,1.04944 0.0811,1.53385 -0.161078,1.85675 -0.242174,0.32291 -0.807195,0.88817 -1.372273,1.53398 -0.565076,0.6458 -0.403566,0.88768 -0.565018,2.01783 -0.161449,1.13016 -0.404064,0.96926 -0.888417,1.37289 -0.484352,0.40363 -0.484045,1.29156 -1.210572,2.17953 -0.726531,0.88798 -1.776025,2.82529 -1.856755,3.55181 -0.08072,0.72653 -0.322954,2.9866 -0.242238,3.87458 0.08073,0.88798 1.453377,1.85681 2.018452,2.09899 0.565078,0.24215 1.937042,0.081 2.582846,0.1617 0.645802,0.0807 2.825405,0.0805 4.036285,-0.1617 1.210882,-0.24218 2.825398,-1.77596 3.229024,-2.42177 0.403627,-0.6458 -0.242238,-1.21064 -0.242238,-2.26007 0,-1.04942 0.08054,-0.72672 0.08054,-0.72672 l 1.695676,-1.85675 -0.322779,-3.79404 c 0,0 -6e-5,-0.24237 0.565018,0.0805 0.565078,0.32289 3.390103,0.72671 3.390103,0.72671 0,0 0.161765,-1.77603 0.403939,-2.664 0.242178,-0.88798 0.807388,-4.60131 1.291734,-7.02307 0.484352,-2.42177 1.856255,-9.92919 2.340607,-11.86661 0.484353,-1.93741 0.807381,-2.98716 1.291737,-3.63297 0.484352,-0.64579 1.291612,-2.74429 1.614512,-3.39009 0.322901,-0.64581 1.049748,-2.34118 1.211196,-2.90625 0.161452,-0.56508 0.483918,-1.77604 0.726093,-2.66401 0.242174,-0.88798 1.452939,-1.45293 1.937291,-1.93729 0.484352,-0.48435 1.372587,-1.93767 1.776214,-2.58347 0.403626,-0.64581 0.645622,-1.8567 0.887796,-2.42177 0.242175,-0.56508 0.645932,-0.80707 1.291734,-1.69505 0.645804,-0.88798 1.291423,-1.21095 1.695052,-1.85675 0.403627,-0.64581 1.857065,-2.34116 2.260691,-2.90625 0.403627,-0.56508 1.85638,-3.14774 2.017829,-4.2779 0.161452,-1.13015 0.888171,-2.50244 1.533975,-3.79404 0.645801,-1.29161 5.650867,-10.73697 7.507544,-12.99727 1.85668,-2.26031 6.538902,-7.58803 6.942532,-7.34584 0.40362,0.24217 2.50231,2.0182 3.30956,2.66401 0.80726,0.6458 1.45268,1.69548 2.58285,3.39072 1.13015,1.69524 5.65093,7.50694 6.94253,9.12144 1.29161,1.61451 6.78083,10.97881 6.78083,10.97881 l 4.27852,2.50231 c 0,0 1.2e-4,1.93778 0.48447,3.06795 0.48435,1.13015 0.56515,1.69486 1.85676,2.58284 1.2916,0.88798 2.58298,2.01853 3.06732,3.06795 0.48435,1.04943 -0.0807,3.55181 0.24224,4.35906 0.3229,0.80726 0.96903,2.6639 1.2112,2.98679 0.24217,0.3229 0.1614,2.17933 0.56501,3.06732 0.40363,0.88797 1.29142,1.85701 1.69506,2.82571 0.40363,0.96869 0.0808,1.77596 0.24224,2.42177 0.16145,0.6458 1.04943,1.69543 1.61451,2.34123 0.56507,0.6458 0.80725,2.66333 0.80725,3.2284 0,0.56509 0.32285,3.47164 0.56502,4.11745 0.24219,0.6458 0.40382,3.71319 0.72672,4.92407 0.3229,1.21087 -2.5e-4,1.37222 -0.1617,1.93729 -0.16145,0.56508 0.64618,1.77603 0.64618,2.66401 0,0.88798 -0.40387,1.29192 -0.1617,2.01845 0.24217,0.72653 1.21064,2.3408 1.45281,3.06733 0.24217,0.72652 -0.88805,1.85683 -1.0495,2.90625 -0.16145,1.04943 -0.24198,2.17952 0.72672,2.98678 0.96871,0.80725 4.19793,1.93754 6.37751,2.099 2.17959,0.16144 3.39031,-0.96898 4.11683,-1.77622 0.72655,-0.80726 0.72655,-4.03653 0.80725,-5.00524 0.0807,-0.9687 -1.04963,-2.58279 -1.53397,-3.14786 -0.48436,-0.56508 -0.6454,-1.85651 -0.7261,-2.50231 -0.0807,-0.6458 -0.96909,-3.22915 -1.45343,-4.52076 -0.48436,-1.29161 -1.04913,-1.37221 -1.21058,-1.93729 -0.16145,-0.56508 0.48402,-1.45362 0.40332,-2.18016 -0.0807,-0.72652 -0.88766,-1.85656 -1.21056,-2.74454 -0.32291,-0.88798 -0.80727,-5.40812 -0.80727,-6.13465 0,-0.72653 0.88754,-1.04994 0.72609,-1.93791 -0.16145,-0.88798 -1.12978,-4.11676 -0.96833,-4.68184 0.16145,-0.56507 0.4841,-0.72648 0.64556,-2.17953 0.16144,-1.45307 -0.48411,-7.10418 -0.64556,-8.47651 -0.16145,-1.37232 -1.1301,-3.47108 -1.37227,-4.35906 -0.24215,-0.88797 0.48409,-1.8567 -0.1617,-3.22902 -0.64581,-1.37234 -0.48401,-2.01821 -0.40332,-2.66401 0.0807,-0.6458 -0.40387,-1.69487 -0.96896,-2.58285 -0.56507,-0.88799 -2.58316,-1.93723 -2.98678,-2.5023 -0.40361,-0.56508 0.0808,-3.14843 -0.32278,-3.71351 -0.40363,-0.56507 -1.29161,-0.64568 -1.61451,-1.13003 -0.3229,-0.48435 1.2e-4,-0.6458 -0.32278,-2.42177 -0.3229,-1.77596 -2.50256,-9.76775 -3.47127,-12.67386 -0.9687,-2.90611 -5.65079,-11.78607 -5.65079,-11.78607 0,0 4.3592,0.48392 7.26531,0.72609 2.90611,0.24219 9.12149,0.0813 10.97818,-0.80663 1.85669,-0.887977 1.29187,-3.632964 0.96896,-6.861984 -0.3229,-3.22901 -2.01783,-5.97371 -3.63234,-8.87982 -1.6145,-2.90611 -3.39042,-4.76275 -2.98679,-5.40856 0.40363,-0.6458 1.04913,-1.29149 1.21058,-1.93729 0.16144,-0.6458 0.16157,-1.21106 -0.32278,-2.34123 -0.48437,-1.13015 -0.48454,-1.29148 0.0805,-1.13003 0.56507,0.16147 0.72677,0.48442 0.96896,0.24224 0.24217,-0.24218 0.56515,-1.21096 1.04949,-2.66401 0.48436,-1.45306 0.24162,-2.58347 0.24162,-2.58347 0,0 -7.34585,-13.23883 -8.15311,-14.61116 -0.80726,-1.37233 -1.04924,-2.09898 -1.69505,-2.90624 -0.6458,-0.80725 -0.40369,-1.61409 -1.04949,-2.34061 -0.6458,-0.72656 -2.09853,-0.3229 -2.01783,-0.80726 0.0807,-0.48434 -0.56551,-2.01852 -0.88842,-2.26069 -0.3229,-0.24217 -2.50206,-0.80683 -3.14786,-1.53335 -0.64581,-0.72653 -1.13054,-2.82577 -2.26069,-3.8752 -1.13017,-1.04943 -3.39042,-1.77553 -3.79405,-2.34061 -0.40363,-0.56507 -1.53366,-2.66395 -1.93729,-3.22903 -0.40362,-0.56507 -1.2915,-1.61494 -1.93729,-2.50293 -0.6458,-0.88798 -0.88785,-2.17948 -2.74455,-4.35906 -1.85668,-2.17958 -4.27852,-3.63234 -4.27852,-3.63234 0,0 -4.5209,0.24207 -5.81249,0.32278 -1.29161,0.0807 -12.512161,1.77559 -12.512161,1.77559 l -1.211199,0.40394 c 0,0 -1.049242,-1.0495 -0.08054,-2.66401 0.968704,-1.61451 1.129843,-3.55163 1.210572,-5.24686 0.08072,-1.69522 0.72678,-5.08578 0.161701,-7.50754 -0.565078,-2.4217594 -4.359066,-5.4893498 -5.973572,-6.4580498 -1.614509,-0.96871 -7.023067,-1.2112 -7.023067,-1.2112 z M 125.89743,61.592046 c 0,0 1.0492,0.48436 1.45281,0.80726 0.40364,0.3229 0.64563,-0.162 0.8878,0.24161 0.24219,0.40364 0.404,1.13042 0.64618,1.77622 0.24217,0.6458 1.04925,1.29155 1.69505,2.17953 0.6458,0.88799 1.45281,3.06732 1.45281,3.06732 l -0.80725,0.48448 c 0,0 -1.61433,-2.26032 -2.50231,-3.22902 -0.88798,-0.96871 -1.45281,-1.53336 -1.45281,-1.53336 0,0 -0.24231,-1.04968 -0.48448,-1.77621 -0.24217,-0.72652 -0.8878,-2.01783 -0.8878,-2.01783 z"
     id="path843"
     inkscape:connector-curvature="0" />
</svg>
