<?xml version="1.0" encoding="iso-8859-1"?>
<!-- Generator: Adobe Illustrator 16.0.0, SVG Export Plug-In . SVG Version: 6.00 Build 0)  -->
<!DOCTYPE svg PUBLIC "-//W3C//DTD SVG 1.1//EN" "http://www.w3.org/Graphics/SVG/1.1/DTD/svg11.dtd">
<svg version="1.1" id="Capa_1" xmlns="http://www.w3.org/2000/svg" xmlns:xlink="http://www.w3.org/1999/xlink" x="0px" y="0px"
	 width="116.693px" height="116.693px" viewBox="0 0 116.693 116.693" style="enable-background:new 0 0 116.693 116.693;"
	 xml:space="preserve">
<g>
	<g>
		<circle cx="67.071" cy="14.461" r="14.461"/>
		<path d="M89.911,70.05c-3.276-13.731-7.522-26.173-18.254-35.922c-0.408-0.371-0.834-0.662-1.266-0.896
			c-2.328-2.232-5.48-3.611-8.961-3.611c-2.326,0-4.504,0.621-6.394,1.695c-5.201-0.864-10.398-2.081-14.842-5.024
			c-3.973-2.632-1.268-6.828,0.779-9.791c0.693-1.003,1.004-1.996,1.027-2.929c1.232-0.117,2.285-1.046,2.488-2.327
			c0.031-0.205,0.035-0.408,0.021-0.607l7.635,1.201l0.098-0.627c0.459-0.152,0.82-0.542,0.9-1.051l0.137-0.875
			c0.08-0.51-0.143-0.992-0.533-1.276l0.098-0.627L40.144,5.384c-0.387-0.413-0.9-0.712-1.5-0.807
			c-0.225-0.035-0.443-0.031-0.66-0.011c-0.152-0.337-0.291-0.694-0.389-1.081l-0.938,0.237c0.102,0.398,0.234,0.768,0.385,1.119
			c-0.717,0.37-1.258,1.057-1.393,1.916l-0.561,1.339c-1.537,0.179-3.033,0.958-4.135,2.55c-4.68,6.772-6.576,15.53-0.615,22.204
			c4.586,5.133,11.441,7.591,18.164,9.01c-0.014,0.242-0.037,0.48-0.037,0.725v23.047c0,1.073,0.146,2.112,0.393,3.112
			c0,14.111,0,28.225,0,42.336c0,7.483,11.604,7.483,11.604,0c0-10.844,0-21.69,0-32.536c0.32,0.024,0.642,0.049,0.968,0.049
			c0.239,0,0.475-0.022,0.711-0.036c0,10.841,0,21.684,0,32.523c0,7.482,11.604,7.482,11.604,0c0-13.805,0-27.612,0-41.418
			c0.416-1.27,0.648-2.623,0.648-4.031v-7.075c1.813,4.567,3.102,9.445,4.328,14.581C80.458,80.41,91.649,77.324,89.911,70.05z
			 M43.518,10.479c0.037,0.198,0.049,0.404,0.018,0.615c-0.133,0.83-0.811,1.434-1.609,1.515c-0.049-0.256-0.127-0.504-0.219-0.746
			c0.098,0.04,0.197,0.076,0.305,0.092l0.15-0.956c-0.283-0.043-0.592-0.43-0.836-0.865L43.518,10.479z"/>
	</g>
</g>
<g>
</g>
<g>
</g>
<g>
</g>
<g>
</g>
<g>
</g>
<g>
</g>
<g>
</g>
<g>
</g>
<g>
</g>
<g>
</g>
<g>
</g>
<g>
</g>
<g>
</g>
<g>
</g>
<g>
</g>
</svg>
